<?xml version="1.0" encoding="UTF-8" standalone="no"?>
<!-- Created with Inkscape (http://www.inkscape.org/) -->

<svg
   xmlns:dc="http://purl.org/dc/elements/1.1/"
   xmlns:cc="http://creativecommons.org/ns#"
   xmlns:rdf="http://www.w3.org/1999/02/22-rdf-syntax-ns#"
   xmlns:svg="http://www.w3.org/2000/svg"
   xmlns="http://www.w3.org/2000/svg"
   xmlns:sodipodi="http://sodipodi.sourceforge.net/DTD/sodipodi-0.dtd"
   xmlns:inkscape="http://www.inkscape.org/namespaces/inkscape"
   width="250"
   height="250"
   viewBox="0 0 66.145833 66.145833"
   version="1.1"
   id="svg8"
   inkscape:version="0.92.2 2405546, 2018-03-11"
   sodipodi:docname="logo.svg">
  <defs
     id="defs2" />
  <sodipodi:namedview
     id="base"
     pagecolor="#ffffff"
     bordercolor="#666666"
     borderopacity="1.0"
     inkscape:pageopacity="0.0"
     inkscape:pageshadow="2"
     inkscape:zoom="1.4142136"
     inkscape:cx="-88.974697"
     inkscape:cy="136.9924"
     inkscape:document-units="mm"
     inkscape:current-layer="layer2"
     showgrid="false"
     inkscape:snap-bbox="true"
     inkscape:snap-text-baseline="true"
     inkscape:snap-center="true"
     inkscape:snap-object-midpoints="true"
     inkscape:snap-bbox-midpoints="false"
     inkscape:bbox-nodes="false"
     inkscape:bbox-paths="false"
     inkscape:window-width="1920"
     inkscape:window-height="1025"
     inkscape:window-x="0"
     inkscape:window-y="31"
     inkscape:window-maximized="1"
     units="px"
     inkscape:snap-page="false">
    <inkscape:grid
       type="xygrid"
       id="grid856" />
  </sodipodi:namedview>
  <metadata
     id="metadata5">
    <rdf:RDF>
      <cc:Work
         rdf:about="">
        <dc:format>image/svg+xml</dc:format>
        <dc:type
           rdf:resource="http://purl.org/dc/dcmitype/StillImage" />
        <dc:title></dc:title>
      </cc:Work>
    </rdf:RDF>
  </metadata>
  <g
     inkscape:groupmode="layer"
     id="layer2"
     inkscape:label="Layer 2"
     style="display:inline"
     transform="translate(-32.808334,-204.39583)">
    <rect
       style="opacity:1;fill:#712774;fill-opacity:1;stroke-width:0.1449925"
       id="rect4562"
       width="66.145836"
       height="66.145836"
       x="32.810638"
       y="204.39706"
       ry="10.664054" />
  </g>
  <g
     inkscape:label="Layer 1"
     inkscape:groupmode="layer"
     id="layer1"
     transform="translate(0,-230.85417)"
     style="display:inline">
    <path
       inkscape:connector-curvature="0"
       style="opacity:1;fill:#f14d5c;fill-opacity:1;stroke-width:0.01827781"
       d="m 15.363262,235.1045 c -0.498261,-0.49827 -1.300498,-0.49827 -1.798759,0 -0.498261,0.49826 -0.498286,1.30052 -2.5e-5,1.79878 l 4.857034,4.85703 c 0.498261,0.49826 1.300544,0.49826 1.798805,0 0.498262,-0.49826 0.49824,-1.30052 -2.1e-5,-1.79878 z m 7.827787,7.82778 c -0.498261,-0.49826 -1.300501,-0.49826 -1.798762,0 -0.498261,0.49826 -0.498283,1.30052 -2.2e-5,1.79879 l 0.952712,0.95271 c 0.498261,0.49826 1.300548,0.49826 1.798809,0 0.498261,-0.49826 0.498236,-1.30052 -2.5e-5,-1.79879 z m 3.660126,3.66013 c -0.498261,-0.49826 -1.300501,-0.49827 -1.798762,0 -0.498261,0.49826 -0.498258,1.3005 3e-6,1.79876 l 0.238218,0.23821 5.905535,5.90554 c 0.498261,0.49826 0.498236,1.30052 -2.5e-5,1.79878 -0.498261,0.49826 -1.300501,0.49827 -1.798762,10e-6 l -5.710051,-5.71005 -0.244562,-0.24457 -2.992598,-2.99259 c -0.498262,-0.49827 -1.300523,-0.49825 -1.798784,10e-6 -0.498264,0.49827 -0.498261,1.30051 0,1.79877 l 2.951046,2.95105 0.286114,0.28611 4.401251,4.40125 c 0.498265,0.49826 0.498265,1.3005 3e-6,1.79876 -0.498261,0.49826 -1.300522,0.49829 -1.798786,2e-5 l -0.460264,-0.46026 -0.67285,-0.67285 c -0.498261,-0.49826 -1.300497,-0.49826 -1.798758,0 -0.498262,0.49826 -0.498265,1.3005 -3e-6,1.79876 l 0.658722,0.65873 3.425135,3.42513 c 0.498265,0.49827 0.498243,1.30052 -1.8e-5,1.79878 -0.498262,0.49827 -1.300501,0.49827 -1.798765,0 l -7.676338,-7.67633 -5.041847,-5.04185 c -0.498261,-0.49826 -1.3004979,-0.49826 -1.798759,0 -0.4982612,0.49826 -0.4982861,1.30052 -2.49e-5,1.79878 l 5.0720339,5.07204 2.244385,2.24438 c 0.498261,0.49826 0.498261,1.3005 0,1.79876 -0.498261,0.49826 -1.300501,0.49827 -1.798762,0 l -2.185523,-2.18552 -0.198408,-0.19841 c -0.498262,-0.49826 -1.300523,-0.49824 -1.798787,2e-5 -0.498258,0.49826 -0.498258,1.30051 3e-6,1.79877 l 0.290436,0.29043 17.010985,17.01099 9.680248,9.68025 c 0.03266,0.0327 0.06549,0.065 0.09846,0.0972 0.0125,0.0122 0.02502,0.0244 0.03769,0.0364 0.02026,0.0196 0.04054,0.0393 0.06108,0.0586 0.01453,0.0139 0.02906,0.0278 0.04391,0.0414 0.01932,0.0181 0.03832,0.0365 0.05792,0.0542 0.01456,0.0133 0.02878,0.0269 0.04334,0.0402 0.02097,0.0191 0.04162,0.0385 0.06287,0.0573 0.01279,0.0115 0.02558,0.0231 0.03838,0.0346 0.02178,0.0199 0.04382,0.0395 0.06596,0.0589 0.01273,0.0115 0.0258,0.0227 0.0385,0.0341 0.02714,0.024 0.05453,0.0477 0.08191,0.0713 0.0071,0.006 0.01391,0.012 0.02066,0.0182 0.03497,0.03 0.07006,0.0597 0.105252,0.0893 0.0084,0.007 0.01705,0.0139 0.02542,0.0211 0.02623,0.0219 0.05256,0.0437 0.07895,0.0653 0.01335,0.0109 0.02667,0.0217 0.04001,0.0325 0.02178,0.0174 0.04333,0.0351 0.06508,0.0525 0.01578,0.0127 0.03165,0.0252 0.04754,0.0377 0.01895,0.0152 0.03822,0.0301 0.05737,0.0451 0.01656,0.0128 0.03302,0.0257 0.0496,0.0385 0.01982,0.0155 0.03988,0.0306 0.05988,0.0458 0.01624,0.0125 0.03267,0.0249 0.04907,0.0372 0.02203,0.0164 0.04396,0.0329 0.06601,0.0492 0.0135,0.01 0.02664,0.0199 0.04001,0.0297 0.03501,0.0257 0.07011,0.0513 0.105308,0.0765 4.3e-4,2e-4 7.53e-4,5e-4 0.0014,0.001 0.01176,0.009 0.02384,0.0169 0.03575,0.0254 0.02464,0.0175 0.04935,0.0351 0.07411,0.0524 0.01609,0.0111 0.03208,0.0223 0.04815,0.0333 0.02051,0.0142 0.04103,0.0284 0.06162,0.0424 0.01696,0.0114 0.03373,0.0229 0.05061,0.0343 0.02026,0.0137 0.04055,0.0273 0.06087,0.0408 0.01746,0.0119 0.03519,0.0234 0.05283,0.035 0.01917,0.0126 0.0384,0.0251 0.05766,0.0376 0.01836,0.0119 0.03675,0.0239 0.05515,0.0357 0.01942,0.0124 0.03888,0.0247 0.05835,0.0371 0.0178,0.0113 0.0356,0.0226 0.05348,0.0338 0.02471,0.0154 0.04949,0.0306 0.07426,0.0459 0.02399,0.0147 0.048,0.0294 0.0721,0.0439 0.02499,0.0151 0.04992,0.0302 0.07499,0.0451 0.01876,0.0112 0.03762,0.0221 0.05645,0.0331 0.01858,0.0109 0.03712,0.0217 0.05574,0.0325 0.01988,0.0115 0.0398,0.0229 0.05975,0.0342 0.01864,0.0106 0.03731,0.0213 0.05598,0.0318 0.01942,0.011 0.03883,0.0218 0.05831,0.0326 0.01942,0.0108 0.0389,0.0215 0.05835,0.0321 0.01901,0.0104 0.03806,0.0208 0.05714,0.0311 0.01929,0.0104 0.03859,0.0207 0.05792,0.031 0.02013,0.0107 0.0403,0.0215 0.0605,0.0321 0.01428,0.007 0.02863,0.0149 0.04293,0.0223 0.05103,0.0265 0.102196,0.0527 0.153541,0.0783 0.0087,0.004 0.01733,0.009 0.02608,0.0131 4.29e-4,1.9e-4 8.37e-4,4.1e-4 0.0012,6.2e-4 0.02231,0.0111 0.04475,0.022 0.06715,0.0329 0.01643,0.008 0.03286,0.0161 0.04932,0.0241 0.02381,0.0115 0.04763,0.0228 0.07147,0.0341 0.01447,0.007 0.02894,0.0138 0.04347,0.0206 0.0243,0.0114 0.04865,0.0227 0.07301,0.0339 0.0155,0.007 0.03102,0.0142 0.04654,0.0213 0.02281,0.0104 0.04563,0.0207 0.0685,0.031 0.01581,0.007 0.03168,0.0141 0.0475,0.0211 0.02527,0.0111 0.05056,0.0223 0.0759,0.0333 0.0087,0.004 0.01721,0.007 0.02583,0.0111 0.09263,0.0399 0.185685,0.0784 0.279119,0.11566 0.01295,0.005 0.02592,0.0104 0.03887,0.0155 0.02601,0.0103 0.05212,0.0203 0.07818,0.0304 0.01316,0.005 0.02632,0.0102 0.03949,0.0152 0.02636,0.01 0.05275,0.02 0.07917,0.0299 0.01322,0.005 0.02645,0.01 0.03968,0.0148 0.02766,0.0102 0.05534,0.0203 0.08307,0.0303 0.01033,0.004 0.02066,0.007 0.03099,0.0111 0.02941,0.0105 0.05883,0.0209 0.08831,0.0312 0.0084,0.003 0.01662,0.006 0.02493,0.009 0.106948,0.0369 0.214297,0.0723 0.322064,0.10595 0.03124,0.01 0.06249,0.0193 0.09379,0.0288 0.009,0.003 0.01799,0.005 0.02698,0.008 0.02987,0.009 0.05975,0.0177 0.08966,0.0265 0.01018,0.003 0.02035,0.006 0.03053,0.009 0.03059,0.009 0.06117,0.0175 0.09179,0.026 0.0084,0.002 0.01668,0.005 0.02502,0.007 0.03165,0.009 0.06334,0.0174 0.09505,0.0259 0.0075,0.002 0.01484,0.004 0.02228,0.006 0.03305,0.009 0.06611,0.0174 0.09921,0.0259 0.113016,0.0289 0.22638,0.056 0.34005,0.0814 0.0025,6.2e-4 0.005,0.001 0.0074,0.002 5.48e-4,7e-5 0.0012,0 0.0019,6.2e-4 0.0342,0.008 0.06846,0.015 0.102738,0.0223 0.0061,0.001 0.01189,0.003 0.01786,0.004 0.03289,0.007 0.06575,0.0137 0.09867,0.0204 0.0079,0.002 0.01568,0.003 0.02356,0.005 0.03407,0.007 0.06818,0.0135 0.102318,0.02 9.33e-4,3.1e-4 0.0016,3.1e-4 0.0025,6.2e-4 0.0016,3.2e-4 0.0031,6.3e-4 0.005,6.3e-4 0.03725,0.007 0.07458,0.014 0.111896,0.0207 0.153624,0.0275 0.307685,0.0518 0.462096,0.073 0.0034,3.2e-4 0.0067,10e-4 0.01024,10e-4 0.03554,0.005 0.07113,0.01 0.106736,0.014 0.0047,3.1e-4 0.0093,10e-4 0.01397,0.002 0.03572,0.004 0.07145,0.009 0.1072,0.0129 0.0037,6.2e-4 0.0076,8.7e-4 0.01139,10e-4 0.03669,0.004 0.07337,0.008 0.110082,0.0122 2.15e-4,2e-5 4.51e-4,4e-5 6.16e-4,0 1.145607,0.12035 2.305605,0.0673 3.438498,-0.15902 5.47e-4,-7e-5 9.33e-4,-3.1e-4 0.0016,-3.1e-4 0.05429,-0.0108 0.108476,-0.0221 0.162621,-0.0337 0.163557,-0.0352 0.326498,-0.074 0.488708,-0.11643 5.51e-4,-7e-5 0.0016,-3.1e-4 0.0019,-6.2e-4 0.0012,-6.2e-4 0.0025,-6.2e-4 0.0037,-10e-4 0.05045,-0.0132 0.100837,-0.0268 0.151148,-0.0408 0.005,-0.001 0.01,-0.003 0.0149,-0.004 0.05027,-0.014 0.100463,-0.0283 0.150566,-0.043 0.0016,-3.1e-4 0.0028,-9.3e-4 0.0044,-10e-4 5.26e-4,-1e-4 0.0012,-6.3e-4 0.0019,-6.3e-4 0.107235,-0.0315 0.214102,-0.0646 0.320574,-0.0993 0.05105,-0.0166 0.101984,-0.0337 0.152843,-0.0511 0.0059,-0.002 0.01217,-0.004 0.01827,-0.006 0.04525,-0.0156 0.09037,-0.0314 0.135458,-0.0476 0.0076,-0.003 0.01515,-0.005 0.02272,-0.008 0.04827,-0.0174 0.09646,-0.0351 0.144544,-0.0532 0.0019,-6.2e-4 0.0037,-0.001 0.0051,-0.002 4.76e-4,-1.5e-4 9.33e-4,-3.1e-4 0.0019,-6.2e-4 0.05234,-0.0197 0.104623,-0.0398 0.156742,-0.0603 0.04908,-0.0193 0.09805,-0.039 0.146919,-0.0591 0.01126,-0.005 0.02247,-0.009 0.0337,-0.014 0.03831,-0.0158 0.07655,-0.0319 0.114731,-0.0481 0.0127,-0.005 0.02536,-0.0109 0.03806,-0.0163 0.0384,-0.0166 0.07677,-0.0333 0.115052,-0.0503 0.01111,-0.005 0.02215,-0.01 0.03323,-0.0147 0.04808,-0.0215 0.09604,-0.0433 0.143894,-0.0655 5.9e-5,-6e-5 1.06e-4,-1.1e-4 2.8e-4,-4e-5 1.188814,-0.55209 2.303785,-1.31978 3.28717,-2.30316 0.983381,-0.98338 1.751068,-2.09835 2.303156,-3.28717 5.9e-5,-6e-5 1.06e-4,-1.1e-4 4.4e-5,-2.8e-4 0.02221,-0.0478 0.04403,-0.0958 0.06553,-0.14389 0.0049,-0.0111 0.0098,-0.0222 0.01475,-0.0332 0.01699,-0.0383 0.03376,-0.0766 0.05031,-0.11505 0.0054,-0.0127 0.01086,-0.0254 0.01628,-0.0381 0.01627,-0.0382 0.03229,-0.0764 0.04813,-0.11473 0.0046,-0.0112 0.0093,-0.0225 0.01397,-0.0337 0.02001,-0.0489 0.03976,-0.0978 0.05907,-0.14691 0.02051,-0.0521 0.04059,-0.10439 0.06031,-0.15675 1.47e-4,-4.7e-4 3.11e-4,-9.3e-4 6.23e-4,-0.002 6.22e-4,-0.002 0.0012,-0.004 0.002,-0.005 0.01808,-0.0481 0.03578,-0.0963 0.05317,-0.14454 0.0026,-0.008 0.0054,-0.0152 0.0082,-0.0227 0.01615,-0.0451 0.03202,-0.0902 0.04757,-0.13546 0.0022,-0.006 0.0042,-0.0122 0.0063,-0.0183 0.01738,-0.0509 0.03445,-0.1018 0.0511,-0.15285 0.03473,-0.10647 0.06783,-0.21334 0.09935,-0.32057 8.4e-5,-5.4e-4 6.22e-4,-10e-4 6.22e-4,-0.002 3.12e-4,-0.002 9.34e-4,-0.003 0.0012,-0.004 0.01469,-0.0501 0.02902,-0.1003 0.04301,-0.15057 0.0013,-0.005 0.0028,-0.01 0.0041,-0.0149 0.01395,-0.0503 0.02753,-0.10069 0.04076,-0.15115 6.23e-4,-10e-4 6.23e-4,-0.002 0.0012,-0.004 7.5e-5,-5.5e-4 3.11e-4,-0.002 6.23e-4,-0.002 0.04245,-0.16221 0.08124,-0.32515 0.116426,-0.48871 0.01164,-0.0541 0.02289,-0.10834 0.03374,-0.16262 7.1e-5,-5.5e-4 3.11e-4,-9.3e-4 3.11e-4,-0.002 0.226343,-1.13291 0.279368,-2.29293 0.15902,-3.43855 -4e-5,-4.2e-4 0,-6.2e-4 0,-0.001 -0.0038,-0.0361 -0.0078,-0.0721 -0.01192,-0.10813 -6.22e-4,-0.004 -0.0011,-0.009 -0.0016,-0.0136 -0.0041,-0.0351 -0.0083,-0.0703 -0.01271,-0.1054 -6.23e-4,-0.006 -0.0014,-0.0108 -0.0021,-0.0162 -0.0044,-0.0349 -0.009,-0.0698 -0.01371,-0.10462 -6.23e-4,-0.004 -0.0012,-0.009 -0.0018,-0.013 -0.0262,-0.19061 -0.05722,-0.38069 -0.09307,-0.57006 -6.22e-4,-0.004 -0.0014,-0.007 -0.002,-0.0107 -0.0066,-0.0347 -0.0134,-0.0694 -0.02034,-0.10408 -0.0011,-0.006 -0.0024,-0.0118 -0.0035,-0.0177 -0.0068,-0.0335 -0.01365,-0.067 -0.02071,-0.10046 -0.0014,-0.007 -0.003,-0.0139 -0.0044,-0.0208 -0.0073,-0.0343 -0.01469,-0.0685 -0.02231,-0.10271 -0.02586,-0.1162 -0.05355,-0.23207 -0.08308,-0.34758 -0.0089,-0.035 -0.0181,-0.0699 -0.02737,-0.10476 -0.0012,-0.005 -0.0026,-0.01 -0.0039,-0.0147 -0.0085,-0.0318 -0.01716,-0.0635 -0.02594,-0.0952 -0.0026,-0.01 -0.0053,-0.0191 -0.008,-0.0287 -0.0083,-0.0299 -0.01687,-0.0598 -0.02547,-0.0897 -0.0029,-0.0101 -0.0058,-0.0201 -0.0087,-0.0302 -0.0089,-0.0307 -0.01798,-0.0614 -0.02716,-0.092 -0.0021,-0.007 -0.0042,-0.0139 -0.0063,-0.0209 -0.0099,-0.0327 -0.01984,-0.0654 -0.03005,-0.0981 0,0 0,0 0,0 -8.1e-5,-1.5e-4 -6e-5,-1.7e-4 -9.4e-5,-2.8e-4 -0.0342,-0.1095 -0.07016,-0.21856 -0.107735,-0.3272 -0.0022,-0.006 -0.0041,-0.012 -0.0062,-0.018 -0.01014,-0.0292 -0.02045,-0.0584 -0.03085,-0.0875 -0.0042,-0.0118 -0.0084,-0.0236 -0.01267,-0.0354 -0.0097,-0.0269 -0.01952,-0.0538 -0.02943,-0.0806 -0.0049,-0.0132 -0.0098,-0.0264 -0.01469,-0.0396 -0.01011,-0.0271 -0.02029,-0.0542 -0.03064,-0.0812 -0.0043,-0.0113 -0.0087,-0.0224 -0.01301,-0.0337 -0.01077,-0.0279 -0.02157,-0.0559 -0.03257,-0.0837 -0.0042,-0.0106 -0.0085,-0.0211 -0.01273,-0.0317 -0.03649,-0.0916 -0.07418,-0.18279 -0.113125,-0.27361 -0.0057,-0.0134 -0.01142,-0.0268 -0.01718,-0.0401 -0.01055,-0.0244 -0.02129,-0.0487 -0.03202,-0.073 -0.0068,-0.0153 -0.0135,-0.0306 -0.02035,-0.0459 -0.01077,-0.0241 -0.02166,-0.0481 -0.0326,-0.0721 -0.0067,-0.0147 -0.01338,-0.0293 -0.0201,-0.0439 -0.0108,-0.0235 -0.0217,-0.047 -0.03269,-0.0704 -0.008,-0.0171 -0.01612,-0.0342 -0.02423,-0.0513 -0.01074,-0.0226 -0.02146,-0.0451 -0.03232,-0.0676 -0.007,-0.0146 -0.01419,-0.0291 -0.02127,-0.0436 -0.01189,-0.0243 -0.02371,-0.0487 -0.03579,-0.073 -8.4e-5,-1.6e-4 -1.4e-4,-2.7e-4 -2.02e-4,-4e-4 -0.0012,-0.002 -0.0027,-0.005 -0.004,-0.008 -0.02894,-0.0581 -0.05847,-0.11591 -0.08844,-0.17359 -0.0071,-0.0136 -0.01413,-0.0273 -0.02128,-0.0409 -0.01089,-0.0208 -0.02198,-0.0415 -0.03302,-0.0623 -0.0098,-0.0184 -0.01964,-0.0368 -0.02954,-0.0552 -0.0108,-0.02 -0.02172,-0.04 -0.03266,-0.0599 -0.01011,-0.0185 -0.02029,-0.0369 -0.03051,-0.0553 -0.01126,-0.0203 -0.02259,-0.0406 -0.03399,-0.0608 -0.01046,-0.0186 -0.02097,-0.0371 -0.03155,-0.0557 -0.01067,-0.0187 -0.02135,-0.0374 -0.0321,-0.0561 -0.01251,-0.0216 -0.02514,-0.0431 -0.03777,-0.0647 -0.0098,-0.0167 -0.01954,-0.0334 -0.02943,-0.0501 -0.0149,-0.0251 -0.03003,-0.0501 -0.04516,-0.0752 -0.01515,-0.025 -0.03039,-0.05 -0.04575,-0.075 -0.0145,-0.0236 -0.02899,-0.0472 -0.04368,-0.0707 -0.01151,-0.0184 -0.02318,-0.0368 -0.03482,-0.0551 -0.01207,-0.0191 -0.02413,-0.0382 -0.03635,-0.0572 -0.01201,-0.0187 -0.02415,-0.0375 -0.0363,-0.0562 -0.0121,-0.0186 -0.02424,-0.0373 -0.03649,-0.0559 -0.01198,-0.0182 -0.02402,-0.0364 -0.03613,-0.0546 -0.01319,-0.0198 -0.02645,-0.0395 -0.03976,-0.0592 -0.01158,-0.0172 -0.02318,-0.0343 -0.03485,-0.0515 -0.01403,-0.0206 -0.0282,-0.041 -0.04239,-0.0615 -0.01108,-0.0161 -0.02216,-0.0321 -0.03333,-0.0482 -0.01693,-0.0241 -0.03402,-0.0482 -0.05115,-0.0722 -0.009,-0.0127 -0.01789,-0.0254 -0.02698,-0.038 -1.99e-4,-3e-4 -5.26e-4,-7.2e-4 -4.82e-4,-7.6e-4 -0.0253,-0.0353 -0.05085,-0.0704 -0.07662,-0.10543 -0.0083,-0.0114 -0.01696,-0.0226 -0.02527,-0.034 -0.01842,-0.0248 -0.03689,-0.0497 -0.05554,-0.0745 -0.01089,-0.0146 -0.02206,-0.0291 -0.03311,-0.0436 -0.01596,-0.0209 -0.03192,-0.0419 -0.04804,-0.0627 -0.01282,-0.0166 -0.02564,-0.0331 -0.03852,-0.0496 -0.01487,-0.0192 -0.03,-0.0383 -0.04511,-0.0574 -0.01263,-0.0157 -0.02508,-0.0317 -0.0377,-0.0475 -0.0174,-0.0217 -0.03491,-0.0434 -0.05251,-0.0651 -0.01086,-0.0133 -0.02169,-0.0267 -0.03254,-0.04 -0.0215,-0.0265 -0.04341,-0.0527 -0.06526,-0.079 -0.0071,-0.008 -0.01391,-0.017 -0.02107,-0.0254 -0.02951,-0.0351 -0.05918,-0.0702 -0.08915,-0.10508 -0.0063,-0.008 -0.01291,-0.0148 -0.01923,-0.0223 -0.02318,-0.0269 -0.04653,-0.0538 -0.07004,-0.0805 -0.01126,-0.0131 -0.0229,-0.026 -0.03449,-0.0388 -0.01948,-0.022 -0.03897,-0.0439 -0.05872,-0.0658 -0.01154,-0.0128 -0.02309,-0.0256 -0.03464,-0.0384 -0.01908,-0.0209 -0.03816,-0.0419 -0.05727,-0.0629 -0.01329,-0.0145 -0.0266,-0.0291 -0.04023,-0.0433 -0.01805,-0.0193 -0.03611,-0.0386 -0.05418,-0.0579 -0.01391,-0.0145 -0.02751,-0.0294 -0.04142,-0.0439 -0.0196,-0.0202 -0.03895,-0.0408 -0.0586,-0.0611 -0.01215,-0.0125 -0.0244,-0.025 -0.03645,-0.0377 -0.03226,-0.0329 -0.06455,-0.0658 -0.09721,-0.0984 L 44.154535,263.89266 27.14355,246.88168 Z m -13.867939,0.52229 c -0.498261,-0.49827 -1.300501,-0.49827 -1.798762,-1e-5 -0.498261,0.49826 -0.498283,1.30053 -2.2e-5,1.79879 l 0.986384,0.98638 c 0.498262,0.49826 1.300526,0.49824 1.798787,-2e-5 0.498261,-0.49826 0.498258,-1.3005 -3e-6,-1.79876 z m 3.56724,3.56724 c -0.498261,-0.49827 -1.300519,-0.49829 -1.79878,-3e-5 -0.498262,0.49827 -0.498265,1.30055 -4e-6,1.79881 l 4.452636,4.45263 c 0.498261,0.49827 1.300522,0.49824 1.798784,-2e-5 0.498261,-0.49826 0.498261,-1.3005 0,-1.79876 z"
       id="path5468" />
    <path
       inkscape:connector-curvature="0"
       style="opacity:1;fill:#e5ff54;fill-opacity:1;stroke-width:0.02357753"
       d="m 34.164946,257.50375 c -0.498264,-0.49827 -1.300501,-0.49827 -1.798762,-1e-5 -0.498261,0.49826 -0.498264,1.3005 0,1.79877 l 12.189323,12.18932 0.73027,0.73027 c 0.498262,0.49826 0.498243,1.30052 -1.8e-5,1.79879 -0.498264,0.49826 -1.300504,0.49826 -1.798765,0 l -2.005679,-2.00568 -0.724112,-0.72412 c -0.498262,-0.49826 -1.300523,-0.49824 -1.798787,3e-5 -0.498261,0.49826 -0.498258,1.3005 3e-6,1.79876 l 0.180448,0.18045 0.550451,0.55045 c 0.498261,0.49826 0.498265,1.3005 3e-6,1.79876 -0.498261,0.49826 -1.300525,0.49828 -1.798786,2e-5 l -0.551939,-0.55194 -6.508784,-6.50878 c -0.498264,-0.49827 -1.300501,-0.49827 -1.798762,0 -0.498261,0.49826 -0.498264,1.3005 0,1.79876 l 7.052311,7.05231 1.925713,1.92571 0.08159,0.0816 c 0.498261,0.49826 0.498243,1.30052 -2.2e-5,1.79878 -0.498261,0.49826 -1.3005,0.49826 -1.798762,0 l -0.723487,-0.72349 -2.498148,-2.49815 c -0.498262,-0.49826 -1.300523,-0.49828 -1.798784,-2e-5 -0.498261,0.49826 -0.498261,1.30055 0,1.79881 l 6.855922,6.85592 c 0.0081,0.008 0.01631,0.0157 0.02461,0.0234 a 8.9034958,8.9034958 0 0 0 0.01506,0.0163 8.9034958,8.9034958 0 0 0 12.591468,0 8.9034958,8.9034958 0 0 0 -2.5e-5,-12.59144 8.9034958,8.9034958 0 0 0 -0.01379,-0.0125 c -0.0086,-0.009 -0.01699,-0.0182 -0.02589,-0.0271 z m -4.309787,2.8853 c -0.498261,-0.49826 -1.300519,-0.49824 -1.798784,3e-5 -0.498261,0.49826 -0.498261,1.30049 0,1.79875 l 1.465984,1.46599 c 0.498262,0.49826 1.300501,0.49826 1.798762,0 0.498265,-0.49826 0.498283,-1.30052 2.2e-5,-1.79878 z m 4.711441,4.71144 c -0.498262,-0.49826 -1.30052,-0.49824 -1.798784,3e-5 -0.498261,0.49826 -0.498261,1.30049 0,1.79876 l 0.119843,0.11984 c 0.498261,0.49826 1.300523,0.49828 1.798784,2e-5 0.498264,-0.49826 0.498261,-1.30054 0,-1.79881 z m 2.83532,2.83532 c -0.498261,-0.49826 -1.300523,-0.49824 -1.798787,2e-5 -0.498261,0.49826 -0.498258,1.3005 3e-6,1.79877 l 0.952712,0.95271 c 0.498261,0.49826 1.300501,0.49826 1.798762,0 0.498264,-0.49826 0.498283,-1.30053 2.2e-5,-1.79879 z m -15.896066,-1.50584 c -0.498261,-0.49826 -1.300498,-0.49826 -1.798759,0 -0.498261,0.49826 -0.498286,1.30052 -2.5e-5,1.79879 l 4.85703,4.85703 c 0.498265,0.49826 1.300548,0.49826 1.798809,0 0.498261,-0.49826 0.498239,-1.30052 -2.5e-5,-1.79879 z m 8.241641,8.24164 c -0.498261,-0.49826 -1.300522,-0.49828 -1.798783,-2e-5 -0.498262,0.49826 -0.498262,1.30055 0,1.79881 l 0.621284,0.62128 c 0.498261,0.49826 1.300523,0.49824 1.798784,-2e-5 0.498261,-0.49826 0.498261,-1.3005 0,-1.79876 z"
       id="path5478" />
  </g>
</svg>
